<?xml version="1.0" standalone="yes"?>

<svg version="1.1" viewBox="0.0 0.0 959.007874015748 419.9711286089239" fill="none" stroke="none" stroke-linecap="square" stroke-miterlimit="10" xmlns="http://www.w3.org/2000/svg" xmlns:xlink="http://www.w3.org/1999/xlink"><clipPath id="p.0"><path d="m0 0l959.0079 0l0 419.97113l-959.0079 0l0 -419.97113z" clip-rule="nonzero"></path></clipPath><g clip-path="url(#p.0)"><path fill="#000000" fill-opacity="0.0" d="m0 0l959.0079 0l0 419.97113l-959.0079 0z" fill-rule="nonzero"></path><path fill="#000000" fill-opacity="0.0" d="m-171.4462 116.64567c71.30758 -15.928307 146.80852 -28.60482 220.5831 -22.690285c16.0405 1.2859726 31.487164 11.41581 38.698315 22.690285c6.2131195 9.714073 3.7317505 24.452324 15.477989 30.251976c26.067024 12.870453 58.53434 15.9991455 89.0068 19.664032c111.23007 13.377533 233.98535 -16.325485 336.67804 19.661423c23.965454 8.39827 21.711182 37.391464 32.89325 55.968506c7.6937866 12.781876 28.137085 18.211166 44.503418 24.199478c27.847473 10.189148 26.30188 13.781158 56.113525 19.664032c196.26654 38.730133 405.21356 20.355225 603.6951 51.43045" fill-rule="evenodd"></path><path stroke="#6fa8dc" stroke-width="24.0" stroke-linejoin="round" stroke-linecap="butt" d="m-171.4462 116.64567c71.30758 -15.928307 146.80852 -28.60482 220.5831 -22.690285c16.0405 1.2859726 31.487164 11.41581 38.698315 22.690285c6.2131195 9.714073 3.7317505 24.452324 15.477989 30.251976c26.067024 12.870453 58.53434 15.9991455 89.0068 19.664032c111.23007 13.377533 233.98535 -16.325485 336.67804 19.661423c23.965454 8.39827 21.711182 37.391464 32.89325 55.968506c7.6937866 12.781876 28.137085 18.211166 44.503418 24.199478c27.847473 10.189148 26.30188 13.781158 56.113525 19.664032c196.26654 38.730133 405.21356 20.355225 603.6951 51.43045" fill-rule="evenodd"></path></g></svg>

