<?xml version="1.0" standalone="yes"?>

<svg version="1.1" viewBox="0.0 0.0 960.0 720.0" fill="none" stroke="none" stroke-linecap="square" stroke-miterlimit="10" xmlns="http://www.w3.org/2000/svg" xmlns:xlink="http://www.w3.org/1999/xlink"><clipPath id="p.0"><path d="m0 0l960.0 0l0 720.0l-960.0 0l0 -720.0z" clip-rule="nonzero"></path></clipPath><g clip-path="url(#p.0)"><path fill="#000000" fill-opacity="0.0" d="m0 0l960.0 0l0 720.0l-960.0 0z" fill-rule="nonzero"></path><path fill="#d9d9d9" d="m59.372704 -260.36743l0 0c0 -0.43777466 0.35488892 -0.7926636 0.7926674 -0.7926636l3.1705704 0l0 0c0.21022797 0 0.41184616 0.083496094 0.5605011 0.23214722c0.14865494 0.14865112 0.23216629 0.35028076 0.23216629 0.56051636l0 613.97375c0 0.43777466 -0.35488892 0.7926636 -0.7926674 0.7926636l-3.1705704 0c-0.43777847 0 -0.7926674 -0.35488892 -0.7926674 -0.7926636z" fill-rule="nonzero"></path><path fill="#d9d9d9" d="m403.20178 -116.37004l0 0c0 -1.0118179 0.82022095 -1.8320618 1.8320618 -1.8320618l7.328003 0l0 0c0.48590088 0 0.9518738 0.19302368 1.2954407 0.5365982c0.3435974 0.34358215 0.5366211 0.8095703 0.5366211 1.2954636l0 571.92645c0 1.0118103 -0.82025146 1.8320618 -1.8320618 1.8320618l-7.328003 0c-1.0118408 0 -1.8320618 -0.82025146 -1.8320618 -1.8320618z" fill-rule="nonzero"></path><path fill="#d9d9d9" d="m226.0 -204.1181l0 0c0 -0.35079956 0.28437805 -0.6351776 0.6351776 -0.6351776l2.5406647 0l0 0c0.16845703 0 0.3300171 0.06692505 0.44914246 0.18603516c0.119125366 0.119125366 0.18603516 0.28068542 0.18603516 0.44914246l0 483.73752c0 0.35079956 -0.28437805 0.6351929 -0.6351776 0.6351929l-2.5406647 0c-0.35079956 0 -0.6351776 -0.2843933 -0.6351776 -0.6351929z" fill-rule="nonzero"></path><path fill="#d9d9d9" d="m860.2808 -149.81561l0 0c0 -1.104599 0.8954468 -2.0000458 2.000061 -2.0000458l7.999939 0l0 0c0.5303955 0 1.0391235 0.21072388 1.4142456 0.5858002c0.37506104 0.3750763 0.5857544 0.8838043 0.5857544 1.4142456l0 680.9448c0 1.1045532 -0.8954468 2.0 -2.0 2.0l-7.999939 0c-1.1046143 0 -2.000061 -0.8954468 -2.000061 -2.0z" fill-rule="nonzero"></path><path fill="#d9d9d9" d="m747.5381 -187.48817l0 0c0 -0.61172485 0.4958496 -1.1076202 1.107605 -1.1076202l4.43042 0l0 0c0.2937622 0 0.5755005 0.11668396 0.7832031 0.3244171c0.20770264 0.2077179 0.32440186 0.48944092 0.32440186 0.7832031l0 466.38318c0 0.61172485 -0.49591064 1.1076355 -1.107605 1.1076355l-4.43042 0c-0.6117554 0 -1.107605 -0.49591064 -1.107605 -1.1076355z" fill-rule="nonzero"></path><path fill="#d9d9d9" d="m584.0945 -264.07874l0 0c0 -0.43777466 0.35491943 -0.7926636 0.7926636 -0.7926636l3.1705933 0l0 0c0.21020508 0 0.4118042 0.08352661 0.56048584 0.23217773c0.14868164 0.14865112 0.23217773 0.35028076 0.23217773 0.56048584l0 463.8005c0 0.43777466 -0.35491943 0.7926636 -0.7926636 0.7926636l-3.1705933 0c-0.43774414 0 -0.7926636 -0.35488892 -0.7926636 -0.7926636z" fill-rule="nonzero"></path><path fill="#ffe7cf" fill-opacity="0.2861" d="m59.328083 -119.43297l0 0c0 -2.748436 2.2280464 -4.9764786 4.976475 -4.9764786l19.90532 0l0 0c1.3198395 0 2.5856247 0.52430725 3.518898 1.4575729c0.9332733 0.9332733 1.4575729 2.1990585 1.4575729 3.5189056l0 475.05493c0 2.7484436 -2.2280426 4.976471 -4.976471 4.976471l-19.90532 0c-2.7484283 0 -4.976475 -2.2280273 -4.976475 -4.976471z" fill-rule="nonzero"></path><path fill="#ffe7cf" fill-opacity="0.2861" d="m227.02887 -203.93428l0 0c0 -2.7484283 2.2280426 -4.976486 4.976486 -4.976486l19.905304 0l0 0c1.3198395 0 2.5856323 0.52430725 3.5189056 1.4575806c0.93325806 0.9332733 1.4575806 2.199051 1.4575806 3.5189056l0 483.36987c0 2.748413 -2.2280579 4.976471 -4.976486 4.976471l-19.905304 0c-2.7484436 0 -4.976486 -2.2280579 -4.976486 -4.976471z" fill-rule="nonzero"></path><path fill="#ffe7cf" fill-opacity="0.2861" d="m402.7244 -38.039204l0 0c0 -4.548832 3.687561 -8.236385 8.236389 -8.236385l32.94455 0l0 0c2.1844482 0 4.2793884 0.8677597 5.824005 2.4123802c1.5446472 1.5446205 2.412384 3.6395798 2.412384 5.824005l0 492.0312c0 4.548828 -3.687561 8.236359 -8.236389 8.236359l-32.94455 0c-4.548828 0 -8.236389 -3.6875305 -8.236389 -8.236359z" fill-rule="nonzero"></path><path fill="#ffe7cf" fill-opacity="0.2861" d="m860.2808 -6.56414l0 0c0 -4.5488296 3.687561 -8.236385 8.236389 -8.236385l32.94458 0l0 0c2.1843872 0 4.279358 0.8677597 5.8239746 2.4123812c1.5446167 1.5446215 2.4124146 3.6395788 2.4124146 5.8240037l0 541.291c0 4.548828 -3.687561 8.236389 -8.236389 8.236389l-32.94458 0c-4.548828 0 -8.236389 -3.687561 -8.236389 -8.236389z" fill-rule="nonzero"></path><path fill="#ffe7cf" fill-opacity="0.2861" d="m747.5381 -195.61932l0 0c0 -2.7484283 2.2280273 -4.976471 4.9764404 -4.976471l19.905334 0l0 0c1.3198242 0 2.5856323 0.52430725 3.5188599 1.4575653c0.9332886 0.9332733 1.4575806 2.1990662 1.4575806 3.5189056l0 475.05493c0 2.748413 -2.2280273 4.976471 -4.9764404 4.976471l-19.905334 0c-2.748413 0 -4.9764404 -2.2280579 -4.9764404 -4.976471z" fill-rule="nonzero"></path><path fill="#ffe7cf" fill-opacity="0.2861" d="m408.34384 199.9895l0 0c0 -5.922928 6.6839905 -10.724411 14.929138 -10.724411l0 0c8.245117 0 14.929108 4.801483 14.929108 10.724411l0 0c0 5.922928 -6.6839905 10.724411 -14.929108 10.724411l0 0c-8.245148 0 -14.929138 -4.801483 -14.929138 -10.724411z" fill-rule="nonzero"></path><path stroke="#b7b7b7" stroke-width="8.0" stroke-linejoin="round" stroke-linecap="butt" d="m408.34384 199.9895l0 0c0 -5.922928 6.6839905 -10.724411 14.929138 -10.724411l0 0c8.245117 0 14.929108 4.801483 14.929108 10.724411l0 0c0 5.922928 -6.6839905 10.724411 -14.929108 10.724411l0 0c-8.245148 0 -14.929138 -4.801483 -14.929138 -10.724411z" fill-rule="nonzero"></path><path fill="#ffe7cf" fill-opacity="0.2861" d="m872.2808 84.89501l0 0c0 -5.922928 6.684021 -10.724411 14.929138 -10.724411l0 0c8.245117 0 14.929138 4.801483 14.929138 10.724411l0 0c0 5.922928 -6.684021 10.724411 -14.929138 10.724411l0 0c-8.245117 0 -14.929138 -4.801483 -14.929138 -10.724411z" fill-rule="nonzero"></path><path stroke="#b7b7b7" stroke-width="8.0" stroke-linejoin="round" stroke-linecap="butt" d="m872.2808 84.89501l0 0c0 -5.922928 6.684021 -10.724411 14.929138 -10.724411l0 0c8.245117 0 14.929138 4.801483 14.929138 10.724411l0 0c0 5.922928 -6.684021 10.724411 -14.929138 10.724411l0 0c-8.245117 0 -14.929138 -4.801483 -14.929138 -10.724411z" fill-rule="nonzero"></path><path fill="#000000" fill-opacity="0.0" d="m62.860893 6.0367455l0 0c0 -4.0964746 4.10347 -7.417323 9.165352 -7.417323l0 0c5.0618896 0 9.1653595 3.3208485 9.1653595 7.417323l0 0c0 4.096474 -4.10347 7.4173226 -9.1653595 7.4173226l0 0c-5.061882 0 -9.165352 -3.3208485 -9.165352 -7.4173226z" fill-rule="nonzero"></path><path stroke="#999999" stroke-width="4.0" stroke-linejoin="round" stroke-linecap="butt" d="m62.860893 6.0367455l0 0c0 -4.0964746 4.10347 -7.417323 9.165352 -7.417323l0 0c5.0618896 0 9.1653595 3.3208485 9.1653595 7.417323l0 0c0 4.096474 -4.10347 7.4173226 -9.1653595 7.4173226l0 0c-5.061882 0 -9.165352 -3.3208485 -9.165352 -7.4173226z" fill-rule="nonzero"></path><path fill="#000000" fill-opacity="0.0" d="m229.24661 169.59317l0 0c0 -3.1484528 4.822647 -5.700775 10.7716675 -5.700775l0 0c5.9490204 0 10.771652 2.5523224 10.771652 5.700775l0 0c0 3.148468 -4.822632 5.7007904 -10.771652 5.7007904l0 0c-5.9490204 0 -10.7716675 -2.5523224 -10.7716675 -5.7007904z" fill-rule="nonzero"></path><path stroke="#999999" stroke-width="3.0" stroke-linejoin="round" stroke-linecap="butt" d="m229.24661 169.59317l0 0c0 -3.1484528 4.822647 -5.700775 10.7716675 -5.700775l0 0c5.9490204 0 10.771652 2.5523224 10.771652 5.700775l0 0c0 3.148468 -4.822632 5.7007904 -10.771652 5.7007904l0 0c-5.9490204 0 -10.7716675 -2.5523224 -10.7716675 -5.7007904z" fill-rule="nonzero"></path><path fill="#000000" fill-opacity="0.0" d="m881.0 233.0c-6.411804 0 -14.466187 1.5338287 -19.0 -3.0" fill-rule="evenodd"></path><path stroke="#999999" stroke-width="1.0" stroke-linejoin="round" stroke-linecap="butt" d="m881.0 233.0c-6.411804 0 -14.466187 1.5338287 -19.0 -3.0" fill-rule="evenodd"></path><path fill="#000000" fill-opacity="0.0" d="m890.0 243.0c-9.871399 0 -24.585388 2.829239 -29.0 -6.0" fill-rule="evenodd"></path><path stroke="#999999" stroke-width="1.0" stroke-linejoin="round" stroke-linecap="butt" d="m890.0 243.0c-9.871399 0 -24.585388 2.829239 -29.0 -6.0" fill-rule="evenodd"></path><path fill="#000000" fill-opacity="0.0" d="m912.0 75.39895c-8.194763 -5.4631653 -17.656555 -8.885513 -27.0 -12.0" fill-rule="evenodd"></path><path stroke="#666666" stroke-width="1.0" stroke-linejoin="round" stroke-linecap="butt" d="m912.0 75.39895c-8.194763 -5.4631653 -17.656555 -8.885513 -27.0 -12.0" fill-rule="evenodd"></path><path fill="#000000" fill-opacity="0.0" d="m911.0 65.39895c-6.225403 -3.1126976 -13.039795 -6.0 -20.0 -6.0" fill-rule="evenodd"></path><path stroke="#666666" stroke-width="1.0" stroke-linejoin="round" stroke-linecap="butt" d="m911.0 65.39895c-6.225403 -3.1126976 -13.039795 -6.0 -20.0 -6.0" fill-rule="evenodd"></path><path fill="#000000" fill-opacity="0.0" d="m452.0 215.0c-5.517639 5.5176544 -14.196869 8.0 -22.0 8.0" fill-rule="evenodd"></path><path stroke="#999999" stroke-width="1.0" stroke-linejoin="round" stroke-linecap="butt" d="m452.0 215.0c-5.517639 5.5176544 -14.196869 8.0 -22.0 8.0" fill-rule="evenodd"></path><path fill="#000000" fill-opacity="0.0" d="m452.0 228.0c-4.7726135 4.7726135 -12.250519 7.0 -19.0 7.0" fill-rule="evenodd"></path><path stroke="#666666" stroke-width="1.0" stroke-linejoin="round" stroke-linecap="butt" d="m452.0 228.0c-4.7726135 4.7726135 -12.250519 7.0 -19.0 7.0" fill-rule="evenodd"></path><path fill="#000000" fill-opacity="0.0" d="m403.0 67.0c8.686859 5.791237 19.559692 9.0 30.0 9.0" fill-rule="evenodd"></path><path stroke="#666666" stroke-width="1.0" stroke-linejoin="round" stroke-linecap="butt" d="m403.0 67.0c8.686859 5.791237 19.559692 9.0 30.0 9.0" fill-rule="evenodd"></path><path fill="#000000" fill-opacity="0.0" d="m438.2021 88.89501c-11.967529 0 -24.295898 -2.6479492 -35.0 -8.0" fill-rule="evenodd"></path><path stroke="#666666" stroke-width="1.0" stroke-linejoin="round" stroke-linecap="butt" d="m438.2021 88.89501c-11.967529 0 -24.295898 -2.6479492 -35.0 -8.0" fill-rule="evenodd"></path><path fill="#000000" fill-opacity="0.0" d="m454.0 132.0c-6.865906 4.1195374 -16.838379 2.5808105 -24.0 -1.0" fill-rule="evenodd"></path><path stroke="#666666" stroke-width="1.0" stroke-linejoin="round" stroke-linecap="butt" d="m454.0 132.0c-6.865906 4.1195374 -16.838379 2.5808105 -24.0 -1.0" fill-rule="evenodd"></path><path fill="#000000" fill-opacity="0.0" d="m422.5 313.08398c-6.6999207 0 -14.4253235 1.7164612 -20.0 -2.0" fill-rule="evenodd"></path><path stroke="#999999" stroke-width="1.0" stroke-linejoin="round" stroke-linecap="butt" d="m422.5 313.08398c-6.6999207 0 -14.4253235 1.7164612 -20.0 -2.0" fill-rule="evenodd"></path><path fill="#000000" fill-opacity="0.0" d="m422.0 322.60104c-6.411804 0 -12.917236 -0.9724121 -19.0 -3.0" fill-rule="evenodd"></path><path stroke="#999999" stroke-width="1.0" stroke-linejoin="round" stroke-linecap="butt" d="m422.0 322.60104c-6.411804 0 -12.917236 -0.9724121 -19.0 -3.0" fill-rule="evenodd"></path><path fill="#000000" fill-opacity="0.0" d="m452.0 414.80054c-3.6092834 9.023163 -18.30774 15.34613 -27.0 11.0" fill-rule="evenodd"></path><path stroke="#999999" stroke-width="1.0" stroke-linejoin="round" stroke-linecap="butt" d="m452.0 414.80054c-3.6092834 9.023163 -18.30774 15.34613 -27.0 11.0" fill-rule="evenodd"></path><path fill="#000000" fill-opacity="0.0" d="m450.0 431.80054c-4.9918213 2.9950867 -11.178589 4.0 -17.0 4.0" fill-rule="evenodd"></path><path stroke="#999999" stroke-width="1.0" stroke-linejoin="round" stroke-linecap="butt" d="m450.0 431.80054c-4.9918213 2.9950867 -11.178589 4.0 -17.0 4.0" fill-rule="evenodd"></path><path fill="#000000" fill-opacity="0.0" d="m891.5 503.80054c-11.080505 0 -24.164917 -1.164917 -32.0 -9.0" fill-rule="evenodd"></path><path stroke="#999999" stroke-width="1.0" stroke-linejoin="round" stroke-linecap="butt" d="m891.5 503.80054c-11.080505 0 -24.164917 -1.164917 -32.0 -9.0" fill-rule="evenodd"></path><path fill="#000000" fill-opacity="0.0" d="m880.7908 118.59833c-6.3843994 -2.032753 -14.266663 -2.741043 -18.451233 -7.9738007" fill-rule="evenodd"></path><path stroke="#999999" stroke-width="1.0" stroke-linejoin="round" stroke-linecap="butt" d="m880.7908 118.59833c-6.3843994 -2.032753 -14.266663 -2.741043 -18.451233 -7.9738007" fill-rule="evenodd"></path><path fill="#000000" fill-opacity="0.0" d="m601.0 35.60105c-5.270447 0 -12.643005 -0.28595734 -15.0 -5.000002" fill-rule="evenodd"></path><path stroke="#b7b7b7" stroke-width="1.0" stroke-linejoin="round" stroke-linecap="butt" d="m601.0 35.60105c-5.270447 0 -12.643005 -0.28595734 -15.0 -5.000002" fill-rule="evenodd"></path><path fill="#000000" fill-opacity="0.0" d="m602.0 42.60105c-5.4974976 0 -10.784668 -2.261547 -16.0 -4.0" fill-rule="evenodd"></path><path stroke="#999999" stroke-width="1.0" stroke-linejoin="round" stroke-linecap="butt" d="m602.0 42.60105c-5.4974976 0 -10.784668 -2.261547 -16.0 -4.0" fill-rule="evenodd"></path><path fill="#000000" fill-opacity="0.0" d="m76.0 310.80054c-5.5876846 0 -13.50111 -0.0022277832 -16.0 -5.0" fill-rule="evenodd"></path><path stroke="#999999" stroke-width="1.0" stroke-linejoin="round" stroke-linecap="butt" d="m76.0 310.80054c-5.5876846 0 -13.50111 -0.0022277832 -16.0 -5.0" fill-rule="evenodd"></path><path fill="#000000" fill-opacity="0.0" d="m81.0 298.80054c-6.641617 0 -16.029778 -0.059570312 -19.0 -6.0" fill-rule="evenodd"></path><path stroke="#999999" stroke-width="1.0" stroke-linejoin="round" stroke-linecap="butt" d="m81.0 298.80054c-6.641617 0 -16.029778 -0.059570312 -19.0 -6.0" fill-rule="evenodd"></path><path fill="#000000" fill-opacity="0.0" d="m88.0 20.199474c-5.3851624 1.7950554 -11.380592 1.8027744 -17.0 1.0" fill-rule="evenodd"></path><path stroke="#999999" stroke-width="1.0" stroke-linejoin="round" stroke-linecap="butt" d="m88.0 20.199474c-5.3851624 1.7950554 -11.380592 1.8027744 -17.0 1.0" fill-rule="evenodd"></path><path fill="#000000" fill-opacity="0.0" d="m88.0 27.199474c-6.6749954 0 -13.6675415 1.1108189 -20.0 -1.0" fill-rule="evenodd"></path><path stroke="#999999" stroke-width="1.0" stroke-linejoin="round" stroke-linecap="butt" d="m88.0 27.199474c-6.6749954 0 -13.6675415 1.1108189 -20.0 -1.0" fill-rule="evenodd"></path><path fill="#000000" fill-opacity="0.0" d="m87.0 33.199474c-5.6764603 0 -11.493019 0.37674332 -17.0 -1.0" fill-rule="evenodd"></path><path stroke="#999999" stroke-width="1.0" stroke-linejoin="round" stroke-linecap="butt" d="m87.0 33.199474c-5.6764603 0 -11.493019 0.37674332 -17.0 -1.0" fill-rule="evenodd"></path><path fill="#000000" fill-opacity="0.0" d="m225.04724 158.98685c5.7772827 -4.8144073 15.742706 -9.171539 22.0 -5.0" fill-rule="evenodd"></path><path stroke="#999999" stroke-width="1.0" stroke-linejoin="round" stroke-linecap="butt" d="m225.04724 158.98685c5.7772827 -4.8144073 15.742706 -9.171539 22.0 -5.0" fill-rule="evenodd"></path><path fill="#000000" fill-opacity="0.0" d="m256.0 180.19948c-6.5996704 3.2998352 -13.621353 7.0 -21.0 7.0" fill-rule="evenodd"></path><path stroke="#999999" stroke-width="1.0" stroke-linejoin="round" stroke-linecap="butt" d="m256.0 180.19948c-6.5996704 3.2998352 -13.621353 7.0 -21.0 7.0" fill-rule="evenodd"></path><path fill="#000000" fill-opacity="0.0" d="m778.0 128.60104c-4.850708 1.212677 -10.149292 1.212677 -15.0 0" fill-rule="evenodd"></path><path stroke="#999999" stroke-width="1.0" stroke-linejoin="round" stroke-linecap="butt" d="m778.0 128.60104c-4.850708 1.212677 -10.149292 1.212677 -15.0 0" fill-rule="evenodd"></path><path fill="#000000" fill-opacity="0.0" d="m777.0 138.60104c-4.055176 0 -10.186462 1.6270599 -12.0 -2.0" fill-rule="evenodd"></path><path stroke="#999999" stroke-width="1.0" stroke-linejoin="round" stroke-linecap="butt" d="m777.0 138.60104c-4.055176 0 -10.186462 1.6270599 -12.0 -2.0" fill-rule="evenodd"></path><path fill="#000000" fill-opacity="0.0" d="m767.0 201.60104c-5.5877075 0 -11.002197 -2.5010986 -16.0 -5.0" fill-rule="evenodd"></path><path stroke="#999999" stroke-width="1.0" stroke-linejoin="round" stroke-linecap="butt" d="m767.0 201.60104c-5.5877075 0 -11.002197 -2.5010986 -16.0 -5.0" fill-rule="evenodd"></path><path fill="#000000" fill-opacity="0.0" d="m765.0 15.601049c4.5338135 0 8.466187 4.0 13.0 4.0" fill-rule="evenodd"></path><path stroke="#999999" stroke-width="1.0" stroke-linejoin="round" stroke-linecap="butt" d="m765.0 15.601049c4.5338135 0 8.466187 4.0 13.0 4.0" fill-rule="evenodd"></path><path fill="#000000" fill-opacity="0.0" d="m244.0 7.60105c4.123108 0 8.31218 1.1560912 12.0 2.9999995" fill-rule="evenodd"></path><path stroke="#999999" stroke-width="1.0" stroke-linejoin="round" stroke-linecap="butt" d="m244.0 7.60105c4.123108 0 8.31218 1.1560912 12.0 2.9999995" fill-rule="evenodd"></path><path fill="#000000" fill-opacity="0.0" d="m237.19423 14.601049c6.3245544 0 15.17157 0.34314632 18.0 6.0" fill-rule="evenodd"></path><path stroke="#999999" stroke-width="1.0" stroke-linejoin="round" stroke-linecap="butt" d="m237.19423 14.601049c6.3245544 0 15.17157 0.34314632 18.0 6.0" fill-rule="evenodd"></path><path fill="#000000" fill-opacity="0.0" d="m237.0 79.601425c-3.6316986 -0.60528564 -9.353455 -2.2930908 -11.0 1.0" fill-rule="evenodd"></path><path stroke="#999999" stroke-width="1.0" stroke-linejoin="round" stroke-linecap="butt" d="m237.0 79.601425c-3.6316986 -0.60528564 -9.353455 -2.2930908 -11.0 1.0" fill-rule="evenodd"></path><path fill="#000000" fill-opacity="0.0" d="m242.0 270.19946c5.3524475 0.89208984 12.990051 1.5149536 16.0 -3.0" fill-rule="evenodd"></path><path stroke="#999999" stroke-width="1.0" stroke-linejoin="round" stroke-linecap="butt" d="m242.0 270.19946c5.3524475 0.89208984 12.990051 1.5149536 16.0 -3.0" fill-rule="evenodd"></path><path fill="#000000" fill-opacity="0.0" d="m255.0 259.19946c-7.7817383 0 -17.497482 1.502533 -23.0 -3.9999847" fill-rule="evenodd"></path><path stroke="#999999" stroke-width="1.0" stroke-linejoin="round" stroke-linecap="butt" d="m255.0 259.19946c-7.7817383 0 -17.497482 1.502533 -23.0 -3.9999847" fill-rule="evenodd"></path><path fill="#000000" fill-opacity="0.0" d="m586.0 186.80052c3.7439575 5.615921 12.596863 9.134384 19.0 7.0" fill-rule="evenodd"></path><path stroke="#999999" stroke-width="1.0" stroke-linejoin="round" stroke-linecap="butt" d="m586.0 186.80052c3.7439575 5.615921 12.596863 9.134384 19.0 7.0" fill-rule="evenodd"></path><path fill="#ffe7cf" fill-opacity="0.2861" d="m584.91077 -284.12064l0 0c0 -2.7484436 2.2280273 -4.976471 4.9765015 -4.976471l19.905273 0l0 0c1.3198242 0 2.5856323 0.524292 3.518921 1.4575806c0.9332886 0.93325806 1.4575806 2.1990356 1.4575806 3.5188904l0 483.36987c0 2.7484436 -2.2280884 4.976486 -4.9765015 4.976486l-19.905273 0c-2.7484741 0 -4.9765015 -2.2280426 -4.9765015 -4.976486z" fill-rule="nonzero"></path><path fill="#d9d9d9" d="m1088.8583 -249.59315l0 0c0 -0.43778992 0.3548584 -0.79267883 0.79260254 -0.79267883l3.1706543 0l0 0c0.21020508 0 0.41186523 0.08352661 0.5604248 0.23217773c0.14868164 0.14865112 0.23217773 0.3502655 0.23217773 0.5605011l0 463.80048c0 0.43777466 -0.3548584 0.7926636 -0.79260254 0.7926636l-3.1706543 0c-0.43774414 0 -0.79260254 -0.35488892 -0.79260254 -0.7926636z" fill-rule="nonzero"></path><path fill="#000000" fill-opacity="0.0" d="m90.80052 191.19948c-4.807396 2.4037018 -10.900978 3.6996765 -16.0 2.0" fill-rule="evenodd"></path><path stroke="#999999" stroke-width="1.0" stroke-linejoin="round" stroke-linecap="butt" d="m90.80052 191.19948c-4.807396 2.4037018 -10.900978 3.6996765 -16.0 2.0" fill-rule="evenodd"></path></g></svg>

